<svg xmlns="http://www.w3.org/2000/svg" viewBox="0 0 640 658" width="640" height="658"><rect x="0" y="0" width="640" height="658" fill="#fff"/><line x1="58" y1="602" x2="606" y2="602" stroke="#111" stroke-width="2"/><path d="M 614 602 L 605 606.5 L 605 597.5 Z" fill="#111"/><line x1="111.6" y1="602" x2="111.6" y2="30" stroke="#111" stroke-width="2"/><path d="M 111.6 22 L 116.1 31 L 107.1 31 Z" fill="#111"/><text x="620" y="609" font-family="'Times New Roman', Times, serif" font-size="22" font-style="italic" fill="#111" text-anchor="start">x</text><text x="123.6" y="18" font-family="'Times New Roman', Times, serif" font-size="22" font-style="italic" fill="#111" text-anchor="start">y</text><line x1="111.6" y1="551.09" x2="433.2" y2="92.91" stroke="#111" stroke-width="2" stroke-linecap="round"/><line x1="540.4" y1="347.45" x2="218.8" y2="194.73" stroke="#111" stroke-width="2" stroke-linecap="round"/><polygon points="111.6,551.09 540.4,347.45 433.2,92.91 218.8,194.73" fill="none" stroke="#111" stroke-width="2" stroke-linejoin="round"/><circle cx="111.6" cy="551.09" r="4.5" fill="#111"/><text x="99.6" y="558.09" font-family="'Times New Roman', Times, serif" font-size="22" font-style="italic" fill="#111" text-anchor="end">A(0, 1)</text><circle cx="540.4" cy="347.45" r="4.5" fill="#111"/><text x="552.4" y="354.45" font-family="'Times New Roman', Times, serif" font-size="22" font-style="italic" fill="#111" text-anchor="start">B(8, 5)</text><circle cx="433.2" cy="92.91" r="4.5" fill="#111"/><text x="443.2" y="81.91" font-family="'Times New Roman', Times, serif" font-size="22" font-style="italic" fill="#111" text-anchor="start">C</text><circle cx="218.8" cy="194.73" r="4.5" fill="#111"/><text x="208.8" y="183.73" font-family="'Times New Roman', Times, serif" font-size="22" font-style="italic" fill="#111" text-anchor="end">D(2, 8)</text><circle cx="326" cy="245.64" r="4.5" fill="#111"/><text x="326" y="226" font-family="'Times New Roman', Times, serif" font-size="22" font-style="italic" fill="#111" text-anchor="middle">X</text><text x="100.6" y="624" font-family="'Times New Roman', Times, serif" font-size="22" font-style="italic" fill="#fff" stroke="#fff" stroke-width="3.6" stroke-linejoin="round" text-anchor="end">O</text><text x="100.6" y="624" font-family="'Times New Roman', Times, serif" font-size="22" font-style="italic" fill="#111" text-anchor="end">O</text></svg>