<svg xmlns="http://www.w3.org/2000/svg" viewBox="0 0 340 220" font-family="system-ui, -apple-system, Segoe UI, Roboto, sans-serif">
  <defs>
    <marker id="aw" viewBox="0 0 10 10" refX="8" refY="5" markerWidth="6" markerHeight="6" orient="auto-start-reverse"><path d="M0,0 L10,5 L0,10 Z" fill="#c0442d"/></marker>
    <marker id="ac" viewBox="0 0 10 10" refX="8" refY="5" markerWidth="6" markerHeight="6" orient="auto-start-reverse"><path d="M0,0 L10,5 L0,10 Z" fill="#2c6e8f"/></marker>
    <marker id="as" viewBox="0 0 10 10" refX="8" refY="5" markerWidth="6" markerHeight="6" orient="auto-start-reverse"><path d="M0,0 L10,5 L0,10 Z" fill="#d99a1c"/></marker>
  </defs>
  <rect x="0" y="0" width="340" height="220" fill="#fff"/>
  <rect x="170" y="180" width="170" height="40" fill="#9cc7e0"/>
  <path d="M0,174 L150,174 Q164,176 174,182 L174,220 L0,220 Z" fill="#cdb58a" stroke="#1e2a4a" stroke-width="1.2"/>
  <line x1="174" y1="180" x2="340" y2="180" stroke="#1e2a4a" stroke-width="1.2"/>
  <g stroke="#d99a1c" stroke-width="1.6" stroke-linecap="round"><circle cx="36" cy="34" r="13" fill="#f6c544"/><line x1="36" y1="17" x2="36" y2="12" transform="rotate(0 36 34)"/>
<line x1="36" y1="17" x2="36" y2="12" transform="rotate(45 36 34)"/>
<line x1="36" y1="17" x2="36" y2="12" transform="rotate(90 36 34)"/>
<line x1="36" y1="17" x2="36" y2="12" transform="rotate(135 36 34)"/>
<line x1="36" y1="17" x2="36" y2="12" transform="rotate(180 36 34)"/>
<line x1="36" y1="17" x2="36" y2="12" transform="rotate(225 36 34)"/>
<line x1="36" y1="17" x2="36" y2="12" transform="rotate(270 36 34)"/>
<line x1="36" y1="17" x2="36" y2="12" transform="rotate(315 36 34)"/></g>
  <line x1="84" y1="162" x2="84" y2="76" stroke="#c0442d" stroke-width="2" marker-end="url(#aw)"/>
  <path d="M98,58 L258,58" stroke="#c0442d" stroke-width="2" fill="none" marker-end="url(#aw)"/>
  <line x1="274" y1="72" x2="274" y2="146" stroke="#2c6e8f" stroke-width="2" marker-end="url(#ac)"/>
  <line x1="262" y1="160" x2="102" y2="160" stroke="#2c6e8f" stroke-width="2" marker-end="url(#ac)"/>
  <text x="70" y="200" font-size="11" fill="#1e2a4a" text-anchor="middle">land  32 °C</text>
  <text x="262" y="204" font-size="11" fill="#1e2a4a" text-anchor="middle">sea  27 °C</text>
  <circle cx="180" cy="146" r="8" fill="#1e2a4a"/><text x="180" y="150" font-size="11" font-weight="700" fill="#fff" text-anchor="middle">A</text>
  <circle cx="100" cy="118" r="8" fill="#1e2a4a"/><text x="100" y="122" font-size="11" font-weight="700" fill="#fff" text-anchor="middle">B</text>
</svg>
