<svg xmlns="http://www.w3.org/2000/svg" width="1200" height="640" viewBox="0 0 1200 640">
<defs>
<marker id="ahL" viewBox="0 0 12 12" refX="10" refY="6" markerWidth="20" markerHeight="20" markerUnits="userSpaceOnUse" orient="auto"><path d="M0,0 L12,6 L0,12 z" fill="#000"/></marker>
<marker id="ahB" viewBox="0 0 12 12" refX="10" refY="6" markerWidth="20" markerHeight="20" markerUnits="userSpaceOnUse" orient="auto"><path d="M0,0 L12,6 L0,12 z" fill="#1f5fbf"/></marker>
<marker id="ahR" viewBox="0 0 12 12" refX="10" refY="6" markerWidth="20" markerHeight="20" markerUnits="userSpaceOnUse" orient="auto"><path d="M0,0 L12,6 L0,12 z" fill="#c0392b"/></marker>
<marker id="ahM" viewBox="0 0 12 12" refX="6" refY="6" markerWidth="22" markerHeight="22" markerUnits="userSpaceOnUse" orient="auto"><path d="M0,0 L12,6 L0,12 z" fill="#000"/></marker>
</defs>
<rect width="1200" height="640" fill="#fff"/>
<g font-family="DejaVu Sans" font-size="28" fill="#000">
<g transform="translate(0,-90)"><rect x="150" y="250" width="900" height="300" fill="#ececec" stroke="#000" stroke-width="3"/><rect x="150" y="320" width="900" height="160" fill="#dbeeff" stroke="#000" stroke-width="2.5"/><polyline points="60,442 321,320 664,480 1007,320 1050,340 1140,382" fill="none" stroke="#c0392b" stroke-width="4"/><line x1="181.44083060720553" y1="385.2345542755591" x2="197.74733551423557" y2="377.61235657955274" stroke="#c0392b" stroke-width="4" marker-end="url(#ahR)"/><line x1="483.4374937187403" y1="395.7725918221529" x2="499.75000502500774" y2="403.38192654227765" stroke="#c0392b" stroke-width="4" marker-end="url(#ahR)"/><line x1="826.4374937187403" y1="404.2274081778471" x2="842.7500050250078" y2="396.61807345772235" stroke="#c0392b" stroke-width="4" marker-end="url(#ahR)"/><line x1="1085.9381686000474" y1="356.77114534668874" x2="1102.2494651199622" y2="364.38308372264896" stroke="#c0392b" stroke-width="4" marker-end="url(#ahR)"/><line x1="664" y1="480" x2="664" y2="335" stroke="#000" stroke-width="2" stroke-dasharray="8,6"/><path d="M664,420 A60,60 0 0,0 609.6,454.6" fill="none" stroke="#000" stroke-width="2.5"/><text x="626" y="418" text-anchor="middle" font-style="italic" font-size="32">i</text><text x="150" y="200" text-anchor="start" >cladding (optically less dense)</text><line x1="300" y1="210" x2="300" y2="285" stroke="#000" stroke-width="1.5" /><text x="150" y="660" text-anchor="start" >core (optically denser)</text><line x1="200" y1="630" x2="230" y2="440" stroke="#000" stroke-width="1.5" /><text x="1050" y="200" text-anchor="end" >total internal reflection</text><line x1="1007" y1="210" x2="1007" y2="320" stroke="#000" stroke-width="1.5" /><text x="664" y="660" text-anchor="middle" >i > critical angle</text><line x1="664" y1="630" x2="664" y2="482" stroke="#000" stroke-width="1.5" /><text x="140" y="505" text-anchor="end" fill="#c0392b">light ray</text></g>
</g></svg>