<svg xmlns="http://www.w3.org/2000/svg" width="1200" height="840" viewBox="0 0 1200 840">
<defs>
<marker id="ahL" viewBox="0 0 12 12" refX="10" refY="6" markerWidth="20" markerHeight="20" markerUnits="userSpaceOnUse" orient="auto"><path d="M0,0 L12,6 L0,12 z" fill="#000"/></marker>
<marker id="ahB" viewBox="0 0 12 12" refX="10" refY="6" markerWidth="20" markerHeight="20" markerUnits="userSpaceOnUse" orient="auto"><path d="M0,0 L12,6 L0,12 z" fill="#1f5fbf"/></marker>
<marker id="ahR" viewBox="0 0 12 12" refX="10" refY="6" markerWidth="20" markerHeight="20" markerUnits="userSpaceOnUse" orient="auto"><path d="M0,0 L12,6 L0,12 z" fill="#c0392b"/></marker>
<marker id="ahM" viewBox="0 0 12 12" refX="6" refY="6" markerWidth="22" markerHeight="22" markerUnits="userSpaceOnUse" orient="auto"><path d="M0,0 L12,6 L0,12 z" fill="#000"/></marker>
</defs>
<rect width="1200" height="840" fill="#fff"/>
<g font-family="DejaVu Sans" font-size="28" fill="#000">
<path d="M450,200 L450,130 L150,130" fill="none" stroke="#000" stroke-width="43" stroke-linejoin="round"/><rect x="431.5" y="150" width="37" height="370" fill="#f3f3f3"/><path d="M450,210 L450,130 L140,130" fill="none" stroke="#f3f3f3" stroke-width="37" stroke-linejoin="round"/><path d="M430,520 L430,650 A170,170 0 0,0 770,650 L770,360 L730,360 L730,650 A130,130 0 0,1 470,650 L470,520 Z" fill="#9cc7ee"/><path d="M430,150 L430,650 A170,170 0 0,0 770,650 L770,180 M470,150 L470,650 A130,130 0 0,0 730,650 L730,180" fill="none" stroke="#000" stroke-width="3"/><line x1="430" y1="520" x2="470" y2="520" stroke="#000" stroke-width="2" /><line x1="730" y1="360" x2="770" y2="360" stroke="#000" stroke-width="2" /><line x1="170" y1="130" x2="330" y2="130" stroke="#1f5fbf" stroke-width="4" marker-end="url(#ahB)"/><text x="150" y="90" text-anchor="start" >gas supply</text><line x1="450" y1="300" x2="450" y2="514" stroke="#000" stroke-width="4" marker-end="url(#ahL)"/><text x="410" y="410" text-anchor="end" >gas</text>
<text x="410" y="444" text-anchor="end" >pressure</text><line x1="750" y1="110" x2="750" y2="354" stroke="#000" stroke-width="4" marker-end="url(#ahL)"/><text x="790" y="220" text-anchor="start" >atmospheric</text>
<text x="790" y="254" text-anchor="start" >pressure</text><text x="750" y="80" text-anchor="middle" >open end</text><line x1="470" y1="520" x2="940" y2="520" stroke="#000" stroke-width="1.5" stroke-dasharray="8,6"/><line x1="770" y1="360" x2="940" y2="360" stroke="#000" stroke-width="1.5" stroke-dasharray="8,6"/><line x1="910" y1="440" x2="910" y2="362" stroke="#000" stroke-width="2.5" marker-end="url(#ahL)"/><line x1="910" y1="440" x2="910" y2="518" stroke="#000" stroke-width="2.5" marker-end="url(#ahL)"/><text x="935" y="452" text-anchor="start" font-size="34" font-style="italic">h</text><text x="970" y="452" text-anchor="start" font-size="26">(height</text>
<text x="970" y="486" text-anchor="start" font-size="26">difference)</text><text x="900" y="760" text-anchor="start" >liquid</text><line x1="895" y1="752" x2="741" y2="700" stroke="#000" stroke-width="1.5" />
</g></svg>