<svg xml:space="preserve" xmlns="http://www.w3.org/2000/svg" width="1200" height="810" viewBox="0 0 1200 810">
<defs><marker id="ah" viewBox="0 0 10 10" refX="9" refY="5" markerWidth="7" markerHeight="7" orient="auto-start-reverse"><path d="M0 0 L10 5 L0 10 Z" fill="#000"/></marker>
<marker id="ahr" viewBox="0 0 10 10" refX="9" refY="5" markerWidth="6" markerHeight="6" orient="auto-start-reverse"><path d="M0 0 L10 5 L0 10 Z" fill="#c62828"/></marker></defs>
<rect width="1200" height="810" fill="#fff"/>
<path d="M600 100 C750 95 822 230 818 410 C815 590 745 725 595 722 C445 720 382 600 384 410 C386 230 450 105 600 100 Z" fill="#fdf3e1" stroke="#000" stroke-width="3"/><path d="M646.4 322.4 A107 107 0 0 1 646.4 497.6" fill="none" stroke="#000" stroke-width="11" stroke-linecap="round" stroke-linejoin="round"/><path d="M646.4 322.4 A107 107 0 0 1 646.4 497.6" fill="none" stroke="#f7d6dc" stroke-width="6" stroke-linecap="round" stroke-linejoin="round"/><circle cx="655.5" cy="319.8" r="2.6" fill="#000"/><circle cx="667.4" cy="330.5" r="2.6" fill="#000"/><circle cx="677.6" cy="342.7" r="2.6" fill="#000"/><circle cx="686.1" cy="356.2" r="2.6" fill="#000"/><circle cx="692.6" cy="370.8" r="2.6" fill="#000"/><circle cx="697.0" cy="386.2" r="2.6" fill="#000"/><circle cx="699.2" cy="402.0" r="2.6" fill="#000"/><circle cx="699.2" cy="418.0" r="2.6" fill="#000"/><circle cx="697.0" cy="433.8" r="2.6" fill="#000"/><circle cx="692.6" cy="449.2" r="2.6" fill="#000"/><circle cx="686.1" cy="463.8" r="2.6" fill="#000"/><circle cx="677.6" cy="477.3" r="2.6" fill="#000"/><circle cx="667.4" cy="489.5" r="2.6" fill="#000"/><circle cx="655.5" cy="500.2" r="2.6" fill="#000"/><path d="M656.1 308.4 A124 124 0 0 1 656.1 511.6" fill="none" stroke="#000" stroke-width="11" stroke-linecap="round" stroke-linejoin="round"/><path d="M656.1 308.4 A124 124 0 0 1 656.1 511.6" fill="none" stroke="#f7d6dc" stroke-width="6" stroke-linecap="round" stroke-linejoin="round"/><circle cx="666.0" cy="306.4" r="2.6" fill="#000"/><circle cx="679.6" cy="318.7" r="2.6" fill="#000"/><circle cx="691.4" cy="332.7" r="2.6" fill="#000"/><circle cx="701.1" cy="348.3" r="2.6" fill="#000"/><circle cx="708.6" cy="365.0" r="2.6" fill="#000"/><circle cx="713.6" cy="382.7" r="2.6" fill="#000"/><circle cx="716.2" cy="400.8" r="2.6" fill="#000"/><circle cx="716.2" cy="419.2" r="2.6" fill="#000"/><circle cx="713.6" cy="437.3" r="2.6" fill="#000"/><circle cx="708.6" cy="455.0" r="2.6" fill="#000"/><circle cx="701.1" cy="471.7" r="2.6" fill="#000"/><circle cx="691.4" cy="487.3" r="2.6" fill="#000"/><circle cx="679.6" cy="501.3" r="2.6" fill="#000"/><circle cx="666.0" cy="513.6" r="2.6" fill="#000"/><path d="M665.9 294.5 A141 141 0 0 1 665.9 525.5" fill="none" stroke="#000" stroke-width="11" stroke-linecap="round" stroke-linejoin="round"/><path d="M665.9 294.5 A141 141 0 0 1 665.9 525.5" fill="none" stroke="#f7d6dc" stroke-width="6" stroke-linecap="round" stroke-linejoin="round"/><circle cx="676.4" cy="293.0" r="2.6" fill="#000"/><circle cx="691.8" cy="306.8" r="2.6" fill="#000"/><circle cx="705.1" cy="322.7" r="2.6" fill="#000"/><circle cx="716.1" cy="340.3" r="2.6" fill="#000"/><circle cx="724.5" cy="359.2" r="2.6" fill="#000"/><circle cx="730.3" cy="379.1" r="2.6" fill="#000"/><circle cx="733.1" cy="399.6" r="2.6" fill="#000"/><circle cx="733.1" cy="420.4" r="2.6" fill="#000"/><circle cx="730.3" cy="440.9" r="2.6" fill="#000"/><circle cx="724.5" cy="460.8" r="2.6" fill="#000"/><circle cx="716.1" cy="479.7" r="2.6" fill="#000"/><circle cx="705.1" cy="497.3" r="2.6" fill="#000"/><circle cx="691.8" cy="513.2" r="2.6" fill="#000"/><circle cx="676.4" cy="527.0" r="2.6" fill="#000"/><circle cx="585" cy="410" r="86" fill="#e8dcf3" stroke="#000" stroke-width="3"/><circle cx="585" cy="410" r="78" fill="#e8dcf3" stroke="#000" stroke-width="2"/><circle cx="595" cy="415" r="24" fill="#b9a0d6" stroke="#000" stroke-width="2"/><path d="M440 240 Q480 214 522 240" fill="none" stroke="#000" stroke-width="11" stroke-linecap="round" stroke-linejoin="round"/><path d="M440 240 Q480 214 522 240" fill="none" stroke="#fbe7a8" stroke-width="6" stroke-linecap="round" stroke-linejoin="round"/><path d="M443 257 Q480 231 519 257" fill="none" stroke="#000" stroke-width="11" stroke-linecap="round" stroke-linejoin="round"/><path d="M443 257 Q480 231 519 257" fill="none" stroke="#fbe7a8" stroke-width="6" stroke-linecap="round" stroke-linejoin="round"/><path d="M446 274 Q480 248 516 274" fill="none" stroke="#000" stroke-width="11" stroke-linecap="round" stroke-linejoin="round"/><path d="M446 274 Q480 248 516 274" fill="none" stroke="#fbe7a8" stroke-width="6" stroke-linecap="round" stroke-linejoin="round"/><path d="M449 291 Q480 265 513 291" fill="none" stroke="#000" stroke-width="11" stroke-linecap="round" stroke-linejoin="round"/><path d="M449 291 Q480 265 513 291" fill="none" stroke="#fbe7a8" stroke-width="6" stroke-linecap="round" stroke-linejoin="round"/><circle cx="430" cy="226" r="6" fill="#fbe7a8" stroke="#000" stroke-width="2"/><circle cx="532" cy="252" r="6" fill="#fbe7a8" stroke="#000" stroke-width="2"/><circle cx="540" cy="285" r="5" fill="#fbe7a8" stroke="#000" stroke-width="2"/><path d="M430 560 C450 540 470 580 490 560 S530 540 545 570" fill="none" stroke="#000" stroke-width="11" stroke-linecap="round" stroke-linejoin="round"/><path d="M430 560 C450 540 470 580 490 560 S530 540 545 570" fill="none" stroke="#d9ecd2" stroke-width="6" stroke-linecap="round" stroke-linejoin="round"/><path d="M440 600 C460 585 480 620 500 600 S535 590 550 610" fill="none" stroke="#000" stroke-width="11" stroke-linecap="round" stroke-linejoin="round"/><path d="M440 600 C460 585 480 620 500 600 S535 590 550 610" fill="none" stroke="#d9ecd2" stroke-width="6" stroke-linecap="round" stroke-linejoin="round"/><path d="M455 640 C475 625 495 660 515 640" fill="none" stroke="#000" stroke-width="11" stroke-linecap="round" stroke-linejoin="round"/><path d="M455 640 C475 625 495 660 515 640" fill="none" stroke="#d9ecd2" stroke-width="6" stroke-linecap="round" stroke-linejoin="round"/><g transform="translate(705 195) rotate(25)"><ellipse rx="52" ry="25" fill="#fde0c4" stroke="#000" stroke-width="2.5"/><ellipse rx="45" ry="18" fill="none" stroke="#000" stroke-width="1.5"/><path d="M-36 0 L-30 -14 L-22 12 L-14 -14 L-6 12 L2 -14 L10 12 L18 -14 L26 12 L33 -10" fill="none" stroke="#000" stroke-width="1.5"/></g><g transform="translate(690 640) rotate(-15)"><ellipse rx="52" ry="25" fill="#fde0c4" stroke="#000" stroke-width="2.5"/><ellipse rx="45" ry="18" fill="none" stroke="#000" stroke-width="1.5"/><path d="M-36 0 L-30 -14 L-22 12 L-14 -14 L-6 12 L2 -14 L10 12 L18 -14 L26 12 L33 -10" fill="none" stroke="#000" stroke-width="1.5"/></g><circle cx="772" cy="482" r="22" fill="#e3f1fb" stroke="#000" stroke-width="2.5"/><circle cx="575" cy="165" r="3.2" fill="#000"/><circle cx="590" cy="175" r="3.2" fill="#000"/><circle cx="562" cy="180" r="3.2" fill="#000"/><circle cx="600" cy="160" r="3.2" fill="#000"/><circle cx="585" cy="190" r="3.2" fill="#000"/><circle cx="612" cy="182" r="3.2" fill="#000"/><circle cx="548" cy="198" r="3.2" fill="#000"/><circle cx="760" cy="320" r="3.2" fill="#000"/><circle cx="772" cy="338" r="3.2" fill="#000"/><circle cx="750" cy="345" r="3.2" fill="#000"/><circle cx="470" cy="470" r="3.2" fill="#000"/><circle cx="455" cy="488" r="3.2" fill="#000"/><circle cx="640" cy="690" r="3.2" fill="#000"/><line x1="366" y1="140" x2="437" y2="189" stroke="#000" stroke-width="1.5"/><circle cx="437" cy="189" r="2.5" fill="#000"/><text x="360" y="122" font-family="DejaVu Sans" font-size="28" text-anchor="end">cell surface</text><text x="360" y="154" font-family="DejaVu Sans" font-size="28" text-anchor="end">membrane</text><line x1="366" y1="253" x2="452" y2="264" stroke="#000" stroke-width="1.5"/><circle cx="452" cy="264" r="2.5" fill="#000"/><text x="360" y="262" font-family="DejaVu Sans" font-size="28" text-anchor="end">Golgi body</text><line x1="366" y1="364" x2="548" y2="392" stroke="#000" stroke-width="1.5"/><circle cx="548" cy="392" r="2.5" fill="#000"/><text x="360" y="372" font-family="DejaVu Sans" font-size="28" text-anchor="end">nucleus</text><line x1="366" y1="462" x2="508" y2="440" stroke="#000" stroke-width="1.5"/><circle cx="508" cy="440" r="2.5" fill="#000"/><text x="360" y="470" font-family="DejaVu Sans" font-size="28" text-anchor="end">nuclear envelope</text><line x1="366" y1="600" x2="452" y2="592" stroke="#000" stroke-width="1.5"/><circle cx="452" cy="592" r="2.5" fill="#000"/><text x="360" y="592" font-family="DejaVu Sans" font-size="28" text-anchor="end">smooth endoplasmic</text><text x="360" y="624" font-family="DejaVu Sans" font-size="28" text-anchor="end">reticulum</text><line x1="834" y1="132" x2="605" y2="163" stroke="#000" stroke-width="1.5"/><circle cx="605" cy="163" r="2.5" fill="#000"/><text x="840" y="140" font-family="DejaVu Sans" font-size="28" text-anchor="start">ribosomes</text><line x1="834" y1="340" x2="724" y2="378" stroke="#000" stroke-width="1.5"/><circle cx="724" cy="378" r="2.5" fill="#000"/><text x="840" y="330" font-family="DejaVu Sans" font-size="28" text-anchor="start">rough endoplasmic</text><text x="840" y="362" font-family="DejaVu Sans" font-size="28" text-anchor="start">reticulum</text><line x1="834" y1="482" x2="794" y2="482" stroke="#000" stroke-width="1.5"/><circle cx="794" cy="482" r="2.5" fill="#000"/><text x="840" y="490" font-family="DejaVu Sans" font-size="28" text-anchor="start">small vacuole</text><line x1="834" y1="577" x2="745" y2="565" stroke="#000" stroke-width="1.5"/><circle cx="745" cy="565" r="2.5" fill="#000"/><text x="840" y="585" font-family="DejaVu Sans" font-size="28" text-anchor="start">cytoplasm</text><line x1="834" y1="682" x2="738" y2="650" stroke="#000" stroke-width="1.5"/><circle cx="738" cy="650" r="2.5" fill="#000"/><text x="840" y="690" font-family="DejaVu Sans" font-size="28" text-anchor="start">mitochondrion</text>
</svg>