<svg xmlns="http://www.w3.org/2000/svg" width="1200" height="840" viewBox="0 0 1200 840">
<defs><marker id="ah" viewBox="0 0 10 10" refX="9" refY="5" markerWidth="7" markerHeight="7" orient="auto-start-reverse"><path d="M0,0 L10,5 L0,10 z" fill="#000"/></marker></defs>
<rect width="1200" height="840" fill="#fff"/>
<g font-family="DejaVu Sans" font-size="30" fill="#000">
<path d="M505.6,700.5 Q483.4,747.4 470.7,793.3 Q462.5,797.8 459.1,789 Q467.6,741.3 492,695.6" fill="#eef6e4" stroke="#000" stroke-width="2"/><path d="M423.5,657.6 Q392.6,689.4 370.8,723.1 Q361.7,725 361.4,715.7 Q379.6,678.9 412.1,648.7" fill="#eef6e4" stroke="#000" stroke-width="2"/><path d="M358.7,591.5 Q319.5,612.1 288.3,637.4 Q279.2,636.4 281.7,627.5 Q310.4,598.2 350.6,579.5" fill="#eef6e4" stroke="#000" stroke-width="2"/><path d="M561.9,126.5 Q562.1,82.1 554.3,42.8 Q559.5,35.1 566.2,41.5 Q578.7,80.7 576.3,125" fill="#eef6e4" stroke="#000" stroke-width="2"/><path d="M644.3,127.3 Q656.7,84.8 660.1,44.8 Q667.2,38.9 671.9,46.9 Q673,87.9 658.5,129.8" fill="#eef6e4" stroke="#000" stroke-width="2"/><path d="M732.5,155.3 Q757.5,118.7 773.1,81.7 Q781.7,78.3 783.6,87.3 Q772.1,126.7 745.3,162.1" fill="#eef6e4" stroke="#000" stroke-width="2"/><path d="M807.8,209.2 Q842.9,182.1 869.2,151.8 Q878.4,151.2 877.5,160.4 Q854.3,194.3 817.9,219.6" fill="#eef6e4" stroke="#000" stroke-width="2"/><path d="M862.8,283.8 Q904.5,268.8 938.9,248.1 Q947.8,250.4 944.1,258.8 Q911.6,283.9 869.1,296.8" fill="#eef6e4" stroke="#000" stroke-width="2"/><path d="M892,371.7 Q936.4,370.3 975.4,361.2 Q983.2,366.1 977.1,373 Q938.4,386.8 894,386" fill="#eef6e4" stroke="#000" stroke-width="2"/><path d="M892.7,464.3 Q935.2,476.7 975.2,480.1 Q981.1,487.2 973.1,491.9 Q932.1,493 890.2,478.5" fill="#eef6e4" stroke="#000" stroke-width="2"/><path d="M864.7,552.5 Q901.3,577.5 938.3,593.1 Q941.7,601.7 932.7,603.6 Q893.3,592.1 857.9,565.3" fill="#eef6e4" stroke="#000" stroke-width="2"/><path d="M810.8,627.8 Q837.9,662.9 868.2,689.2 Q868.8,698.4 859.6,697.5 Q825.7,674.3 800.4,637.9" fill="#eef6e4" stroke="#000" stroke-width="2"/><path d="M736.2,682.8 Q751.2,724.5 771.9,758.9 Q769.6,767.8 761.2,764.1 Q736.1,731.6 723.2,689.1" fill="#eef6e4" stroke="#000" stroke-width="2"/><path d="M648.3,712 Q649.7,756.4 658.8,795.4 Q653.9,803.2 647,797.1 Q633.2,758.4 634,714" fill="#eef6e4" stroke="#000" stroke-width="2"/><path d="M576.3,715 Q566.8,758.4 566.2,798.5 Q559.5,804.9 554.3,797.2 Q550.3,756.4 561.9,713.5" fill="#eef6e4" stroke="#000" stroke-width="2"/><circle cx="600" cy="420" r="300" fill="#eef6e4" stroke="#000" stroke-width="3"/><circle cx="600" cy="420" r="282" fill="#f8f6ec" stroke="#000" stroke-width="1.5"/><line x1="600" y1="138" x2="600" y2="120" stroke="#000" stroke-width="1"/><line x1="622.1" y1="138.9" x2="623.5" y2="120.9" stroke="#000" stroke-width="1"/><line x1="644.1" y1="141.5" x2="646.9" y2="123.7" stroke="#000" stroke-width="1"/><line x1="665.8" y1="145.8" x2="670" y2="128.3" stroke="#000" stroke-width="1"/><line x1="687.1" y1="151.8" x2="692.7" y2="134.7" stroke="#000" stroke-width="1"/><line x1="707.9" y1="159.5" x2="714.8" y2="142.8" stroke="#000" stroke-width="1"/><line x1="728" y1="168.7" x2="736.2" y2="152.7" stroke="#000" stroke-width="1"/><line x1="747.3" y1="179.6" x2="756.7" y2="164.2" stroke="#000" stroke-width="1"/><line x1="765.8" y1="191.9" x2="776.3" y2="177.3" stroke="#000" stroke-width="1"/><line x1="783.1" y1="205.6" x2="794.8" y2="191.9" stroke="#000" stroke-width="1"/><line x1="799.4" y1="220.6" x2="812.1" y2="207.9" stroke="#000" stroke-width="1"/><line x1="814.4" y1="236.9" x2="828.1" y2="225.2" stroke="#000" stroke-width="1"/><line x1="828.1" y1="254.2" x2="842.7" y2="243.7" stroke="#000" stroke-width="1"/><line x1="840.4" y1="272.7" x2="855.8" y2="263.3" stroke="#000" stroke-width="1"/><line x1="851.3" y1="292" x2="867.3" y2="283.8" stroke="#000" stroke-width="1"/><line x1="860.5" y1="312.1" x2="877.2" y2="305.2" stroke="#000" stroke-width="1"/><line x1="868.2" y1="332.9" x2="885.3" y2="327.3" stroke="#000" stroke-width="1"/><line x1="874.2" y1="354.2" x2="891.7" y2="350" stroke="#000" stroke-width="1"/><line x1="878.5" y1="375.9" x2="896.3" y2="373.1" stroke="#000" stroke-width="1"/><line x1="881.1" y1="397.9" x2="899.1" y2="396.5" stroke="#000" stroke-width="1"/><line x1="882" y1="420" x2="900" y2="420" stroke="#000" stroke-width="1"/><line x1="881.1" y1="442.1" x2="899.1" y2="443.5" stroke="#000" stroke-width="1"/><line x1="878.5" y1="464.1" x2="896.3" y2="466.9" stroke="#000" stroke-width="1"/><line x1="874.2" y1="485.8" x2="891.7" y2="490" stroke="#000" stroke-width="1"/><line x1="868.2" y1="507.1" x2="885.3" y2="512.7" stroke="#000" stroke-width="1"/><line x1="860.5" y1="527.9" x2="877.2" y2="534.8" stroke="#000" stroke-width="1"/><line x1="851.3" y1="548" x2="867.3" y2="556.2" stroke="#000" stroke-width="1"/><line x1="840.4" y1="567.3" x2="855.8" y2="576.7" stroke="#000" stroke-width="1"/><line x1="828.1" y1="585.8" x2="842.7" y2="596.3" stroke="#000" stroke-width="1"/><line x1="814.4" y1="603.1" x2="828.1" y2="614.8" stroke="#000" stroke-width="1"/><line x1="799.4" y1="619.4" x2="812.1" y2="632.1" stroke="#000" stroke-width="1"/><line x1="783.1" y1="634.4" x2="794.8" y2="648.1" stroke="#000" stroke-width="1"/><line x1="765.8" y1="648.1" x2="776.3" y2="662.7" stroke="#000" stroke-width="1"/><line x1="747.3" y1="660.4" x2="756.7" y2="675.8" stroke="#000" stroke-width="1"/><line x1="728" y1="671.3" x2="736.2" y2="687.3" stroke="#000" stroke-width="1"/><line x1="707.9" y1="680.5" x2="714.8" y2="697.2" stroke="#000" stroke-width="1"/><line x1="687.1" y1="688.2" x2="692.7" y2="705.3" stroke="#000" stroke-width="1"/><line x1="665.8" y1="694.2" x2="670" y2="711.7" stroke="#000" stroke-width="1"/><line x1="644.1" y1="698.5" x2="646.9" y2="716.3" stroke="#000" stroke-width="1"/><line x1="622.1" y1="701.1" x2="623.5" y2="719.1" stroke="#000" stroke-width="1"/><line x1="600" y1="702" x2="600" y2="720" stroke="#000" stroke-width="1"/><line x1="577.9" y1="701.1" x2="576.5" y2="719.1" stroke="#000" stroke-width="1"/><line x1="555.9" y1="698.5" x2="553.1" y2="716.3" stroke="#000" stroke-width="1"/><line x1="534.2" y1="694.2" x2="530" y2="711.7" stroke="#000" stroke-width="1"/><line x1="512.9" y1="688.2" x2="507.3" y2="705.3" stroke="#000" stroke-width="1"/><line x1="492.1" y1="680.5" x2="485.2" y2="697.2" stroke="#000" stroke-width="1"/><line x1="472" y1="671.3" x2="463.8" y2="687.3" stroke="#000" stroke-width="1"/><line x1="452.7" y1="660.4" x2="443.3" y2="675.8" stroke="#000" stroke-width="1"/><line x1="434.2" y1="648.1" x2="423.7" y2="662.7" stroke="#000" stroke-width="1"/><line x1="416.9" y1="634.4" x2="405.2" y2="648.1" stroke="#000" stroke-width="1"/><line x1="400.6" y1="619.4" x2="387.9" y2="632.1" stroke="#000" stroke-width="1"/><line x1="385.6" y1="603.1" x2="371.9" y2="614.8" stroke="#000" stroke-width="1"/><line x1="371.9" y1="585.8" x2="357.3" y2="596.3" stroke="#000" stroke-width="1"/><line x1="359.6" y1="567.3" x2="344.2" y2="576.7" stroke="#000" stroke-width="1"/><line x1="348.7" y1="548" x2="332.7" y2="556.2" stroke="#000" stroke-width="1"/><line x1="339.5" y1="527.9" x2="322.8" y2="534.8" stroke="#000" stroke-width="1"/><line x1="331.8" y1="507.1" x2="314.7" y2="512.7" stroke="#000" stroke-width="1"/><line x1="325.8" y1="485.8" x2="308.3" y2="490" stroke="#000" stroke-width="1"/><line x1="321.5" y1="464.1" x2="303.7" y2="466.9" stroke="#000" stroke-width="1"/><line x1="318.9" y1="442.1" x2="300.9" y2="443.5" stroke="#000" stroke-width="1"/><line x1="318" y1="420" x2="300" y2="420" stroke="#000" stroke-width="1"/><line x1="318.9" y1="397.9" x2="300.9" y2="396.5" stroke="#000" stroke-width="1"/><line x1="321.5" y1="375.9" x2="303.7" y2="373.1" stroke="#000" stroke-width="1"/><line x1="325.8" y1="354.2" x2="308.3" y2="350" stroke="#000" stroke-width="1"/><line x1="331.8" y1="332.9" x2="314.7" y2="327.3" stroke="#000" stroke-width="1"/><line x1="339.5" y1="312.1" x2="322.8" y2="305.2" stroke="#000" stroke-width="1"/><line x1="348.7" y1="292" x2="332.7" y2="283.8" stroke="#000" stroke-width="1"/><line x1="359.6" y1="272.7" x2="344.2" y2="263.3" stroke="#000" stroke-width="1"/><line x1="371.9" y1="254.2" x2="357.3" y2="243.7" stroke="#000" stroke-width="1"/><line x1="385.6" y1="236.9" x2="371.9" y2="225.2" stroke="#000" stroke-width="1"/><line x1="400.6" y1="220.6" x2="387.9" y2="207.9" stroke="#000" stroke-width="1"/><line x1="416.9" y1="205.6" x2="405.2" y2="191.9" stroke="#000" stroke-width="1"/><line x1="434.2" y1="191.9" x2="423.7" y2="177.3" stroke="#000" stroke-width="1"/><line x1="452.7" y1="179.6" x2="443.3" y2="164.2" stroke="#000" stroke-width="1"/><line x1="472" y1="168.7" x2="463.8" y2="152.7" stroke="#000" stroke-width="1"/><line x1="492.1" y1="159.5" x2="485.2" y2="142.8" stroke="#000" stroke-width="1"/><line x1="512.9" y1="151.8" x2="507.3" y2="134.7" stroke="#000" stroke-width="1"/><line x1="534.2" y1="145.8" x2="530" y2="128.3" stroke="#000" stroke-width="1"/><line x1="555.9" y1="141.5" x2="553.1" y2="123.7" stroke="#000" stroke-width="1"/><line x1="577.9" y1="138.9" x2="576.5" y2="120.9" stroke="#000" stroke-width="1"/><circle cx="600" cy="162" r="11" fill="none" stroke="#c9c2a4" stroke-width="1"/><circle cx="628.9" cy="163.6" r="11" fill="none" stroke="#c9c2a4" stroke-width="1"/><circle cx="657.4" cy="168.5" r="11" fill="none" stroke="#c9c2a4" stroke-width="1"/><circle cx="685.2" cy="176.5" r="11" fill="none" stroke="#c9c2a4" stroke-width="1"/><circle cx="711.9" cy="187.6" r="11" fill="none" stroke="#c9c2a4" stroke-width="1"/><circle cx="737.3" cy="201.5" r="11" fill="none" stroke="#c9c2a4" stroke-width="1"/><circle cx="760.9" cy="218.3" r="11" fill="none" stroke="#c9c2a4" stroke-width="1"/><circle cx="782.4" cy="237.6" r="11" fill="none" stroke="#c9c2a4" stroke-width="1"/><circle cx="801.7" cy="259.1" r="11" fill="none" stroke="#c9c2a4" stroke-width="1"/><circle cx="818.5" cy="282.7" r="11" fill="none" stroke="#c9c2a4" stroke-width="1"/><circle cx="832.4" cy="308.1" r="11" fill="none" stroke="#c9c2a4" stroke-width="1"/><circle cx="843.5" cy="334.8" r="11" fill="none" stroke="#c9c2a4" stroke-width="1"/><circle cx="851.5" cy="362.6" r="11" fill="none" stroke="#c9c2a4" stroke-width="1"/><circle cx="856.4" cy="391.1" r="11" fill="none" stroke="#c9c2a4" stroke-width="1"/><circle cx="858" cy="420" r="11" fill="none" stroke="#c9c2a4" stroke-width="1"/><circle cx="856.4" cy="448.9" r="11" fill="none" stroke="#c9c2a4" stroke-width="1"/><circle cx="851.5" cy="477.4" r="11" fill="none" stroke="#c9c2a4" stroke-width="1"/><circle cx="843.5" cy="505.2" r="11" fill="none" stroke="#c9c2a4" stroke-width="1"/><circle cx="832.4" cy="531.9" r="11" fill="none" stroke="#c9c2a4" stroke-width="1"/><circle cx="818.5" cy="557.3" r="11" fill="none" stroke="#c9c2a4" stroke-width="1"/><circle cx="801.7" cy="580.9" r="11" fill="none" stroke="#c9c2a4" stroke-width="1"/><circle cx="782.4" cy="602.4" r="11" fill="none" stroke="#c9c2a4" stroke-width="1"/><circle cx="760.9" cy="621.7" r="11" fill="none" stroke="#c9c2a4" stroke-width="1"/><circle cx="737.3" cy="638.5" r="11" fill="none" stroke="#c9c2a4" stroke-width="1"/><circle cx="711.9" cy="652.4" r="11" fill="none" stroke="#c9c2a4" stroke-width="1"/><circle cx="685.2" cy="663.5" r="11" fill="none" stroke="#c9c2a4" stroke-width="1"/><circle cx="657.4" cy="671.5" r="11" fill="none" stroke="#c9c2a4" stroke-width="1"/><circle cx="628.9" cy="676.4" r="11" fill="none" stroke="#c9c2a4" stroke-width="1"/><circle cx="600" cy="678" r="11" fill="none" stroke="#c9c2a4" stroke-width="1"/><circle cx="571.1" cy="676.4" r="11" fill="none" stroke="#c9c2a4" stroke-width="1"/><circle cx="542.6" cy="671.5" r="11" fill="none" stroke="#c9c2a4" stroke-width="1"/><circle cx="514.8" cy="663.5" r="11" fill="none" stroke="#c9c2a4" stroke-width="1"/><circle cx="488.1" cy="652.4" r="11" fill="none" stroke="#c9c2a4" stroke-width="1"/><circle cx="462.7" cy="638.5" r="11" fill="none" stroke="#c9c2a4" stroke-width="1"/><circle cx="439.1" cy="621.7" r="11" fill="none" stroke="#c9c2a4" stroke-width="1"/><circle cx="417.6" cy="602.4" r="11" fill="none" stroke="#c9c2a4" stroke-width="1"/><circle cx="398.3" cy="580.9" r="11" fill="none" stroke="#c9c2a4" stroke-width="1"/><circle cx="381.5" cy="557.3" r="11" fill="none" stroke="#c9c2a4" stroke-width="1"/><circle cx="367.6" cy="531.9" r="11" fill="none" stroke="#c9c2a4" stroke-width="1"/><circle cx="356.5" cy="505.2" r="11" fill="none" stroke="#c9c2a4" stroke-width="1"/><circle cx="348.5" cy="477.4" r="11" fill="none" stroke="#c9c2a4" stroke-width="1"/><circle cx="343.6" cy="448.9" r="11" fill="none" stroke="#c9c2a4" stroke-width="1"/><circle cx="342" cy="420" r="11" fill="none" stroke="#c9c2a4" stroke-width="1"/><circle cx="343.6" cy="391.1" r="11" fill="none" stroke="#c9c2a4" stroke-width="1"/><circle cx="348.5" cy="362.6" r="11" fill="none" stroke="#c9c2a4" stroke-width="1"/><circle cx="356.5" cy="334.8" r="11" fill="none" stroke="#c9c2a4" stroke-width="1"/><circle cx="367.6" cy="308.1" r="11" fill="none" stroke="#c9c2a4" stroke-width="1"/><circle cx="381.5" cy="282.7" r="11" fill="none" stroke="#c9c2a4" stroke-width="1"/><circle cx="398.3" cy="259.1" r="11" fill="none" stroke="#c9c2a4" stroke-width="1"/><circle cx="417.6" cy="237.6" r="11" fill="none" stroke="#c9c2a4" stroke-width="1"/><circle cx="439.1" cy="218.3" r="11" fill="none" stroke="#c9c2a4" stroke-width="1"/><circle cx="462.7" cy="201.5" r="11" fill="none" stroke="#c9c2a4" stroke-width="1"/><circle cx="488.1" cy="187.6" r="11" fill="none" stroke="#c9c2a4" stroke-width="1"/><circle cx="514.8" cy="176.5" r="11" fill="none" stroke="#c9c2a4" stroke-width="1"/><circle cx="542.6" cy="168.5" r="11" fill="none" stroke="#c9c2a4" stroke-width="1"/><circle cx="571.1" cy="163.6" r="11" fill="none" stroke="#c9c2a4" stroke-width="1"/><circle cx="640.5" cy="190.5" r="11" fill="none" stroke="#c9c2a4" stroke-width="1"/><circle cx="668.9" cy="197.4" r="11" fill="none" stroke="#c9c2a4" stroke-width="1"/><circle cx="696.3" cy="207.8" r="11" fill="none" stroke="#c9c2a4" stroke-width="1"/><circle cx="722.1" cy="221.5" r="11" fill="none" stroke="#c9c2a4" stroke-width="1"/><circle cx="746" cy="238.4" r="11" fill="none" stroke="#c9c2a4" stroke-width="1"/><circle cx="767.6" cy="258.1" r="11" fill="none" stroke="#c9c2a4" stroke-width="1"/><circle cx="786.6" cy="280.4" r="11" fill="none" stroke="#c9c2a4" stroke-width="1"/><circle cx="802.6" cy="304.9" r="11" fill="none" stroke="#c9c2a4" stroke-width="1"/><circle cx="815.4" cy="331.2" r="11" fill="none" stroke="#c9c2a4" stroke-width="1"/><circle cx="824.8" cy="358.9" r="11" fill="none" stroke="#c9c2a4" stroke-width="1"/><circle cx="830.7" cy="387.6" r="11" fill="none" stroke="#c9c2a4" stroke-width="1"/><circle cx="833" cy="416.7" r="11" fill="none" stroke="#c9c2a4" stroke-width="1"/><circle cx="831.5" cy="446" r="11" fill="none" stroke="#c9c2a4" stroke-width="1"/><circle cx="826.5" cy="474.8" r="11" fill="none" stroke="#c9c2a4" stroke-width="1"/><circle cx="817.8" cy="502.7" r="11" fill="none" stroke="#c9c2a4" stroke-width="1"/><circle cx="805.7" cy="529.4" r="11" fill="none" stroke="#c9c2a4" stroke-width="1"/><circle cx="790.4" cy="554.3" r="11" fill="none" stroke="#c9c2a4" stroke-width="1"/><circle cx="772.1" cy="577.1" r="11" fill="none" stroke="#c9c2a4" stroke-width="1"/><circle cx="751" cy="597.4" r="11" fill="none" stroke="#c9c2a4" stroke-width="1"/><circle cx="727.6" cy="615" r="11" fill="none" stroke="#c9c2a4" stroke-width="1"/><circle cx="702.1" cy="629.4" r="11" fill="none" stroke="#c9c2a4" stroke-width="1"/><circle cx="675.1" cy="640.6" r="11" fill="none" stroke="#c9c2a4" stroke-width="1"/><circle cx="646.9" cy="648.2" r="11" fill="none" stroke="#c9c2a4" stroke-width="1"/><circle cx="617.9" cy="652.3" r="11" fill="none" stroke="#c9c2a4" stroke-width="1"/><circle cx="588.6" cy="652.7" r="11" fill="none" stroke="#c9c2a4" stroke-width="1"/><circle cx="559.5" cy="649.5" r="11" fill="none" stroke="#c9c2a4" stroke-width="1"/><circle cx="531.1" cy="642.6" r="11" fill="none" stroke="#c9c2a4" stroke-width="1"/><circle cx="503.7" cy="632.2" r="11" fill="none" stroke="#c9c2a4" stroke-width="1"/><circle cx="477.9" cy="618.5" r="11" fill="none" stroke="#c9c2a4" stroke-width="1"/><circle cx="454" cy="601.6" r="11" fill="none" stroke="#c9c2a4" stroke-width="1"/><circle cx="432.4" cy="581.9" r="11" fill="none" stroke="#c9c2a4" stroke-width="1"/><circle cx="413.4" cy="559.6" r="11" fill="none" stroke="#c9c2a4" stroke-width="1"/><circle cx="397.4" cy="535.1" r="11" fill="none" stroke="#c9c2a4" stroke-width="1"/><circle cx="384.6" cy="508.8" r="11" fill="none" stroke="#c9c2a4" stroke-width="1"/><circle cx="375.2" cy="481.1" r="11" fill="none" stroke="#c9c2a4" stroke-width="1"/><circle cx="369.3" cy="452.4" r="11" fill="none" stroke="#c9c2a4" stroke-width="1"/><circle cx="367" cy="423.3" r="11" fill="none" stroke="#c9c2a4" stroke-width="1"/><circle cx="368.5" cy="394" r="11" fill="none" stroke="#c9c2a4" stroke-width="1"/><circle cx="373.5" cy="365.2" r="11" fill="none" stroke="#c9c2a4" stroke-width="1"/><circle cx="382.2" cy="337.3" r="11" fill="none" stroke="#c9c2a4" stroke-width="1"/><circle cx="394.3" cy="310.6" r="11" fill="none" stroke="#c9c2a4" stroke-width="1"/><circle cx="409.6" cy="285.7" r="11" fill="none" stroke="#c9c2a4" stroke-width="1"/><circle cx="427.9" cy="262.9" r="11" fill="none" stroke="#c9c2a4" stroke-width="1"/><circle cx="449" cy="242.6" r="11" fill="none" stroke="#c9c2a4" stroke-width="1"/><circle cx="472.4" cy="225" r="11" fill="none" stroke="#c9c2a4" stroke-width="1"/><circle cx="497.9" cy="210.6" r="11" fill="none" stroke="#c9c2a4" stroke-width="1"/><circle cx="524.9" cy="199.4" r="11" fill="none" stroke="#c9c2a4" stroke-width="1"/><circle cx="553.1" cy="191.8" r="11" fill="none" stroke="#c9c2a4" stroke-width="1"/><circle cx="582.1" cy="187.7" r="11" fill="none" stroke="#c9c2a4" stroke-width="1"/><circle cx="611.4" cy="187.3" r="11" fill="none" stroke="#c9c2a4" stroke-width="1"/><circle cx="618.1" cy="212.8" r="11" fill="none" stroke="#c9c2a4" stroke-width="1"/><circle cx="646.8" cy="217.3" r="11" fill="none" stroke="#c9c2a4" stroke-width="1"/><circle cx="674.5" cy="225.8" r="11" fill="none" stroke="#c9c2a4" stroke-width="1"/><circle cx="700.8" cy="238.1" r="11" fill="none" stroke="#c9c2a4" stroke-width="1"/><circle cx="725.2" cy="253.9" r="11" fill="none" stroke="#c9c2a4" stroke-width="1"/><circle cx="747.1" cy="272.9" r="11" fill="none" stroke="#c9c2a4" stroke-width="1"/><circle cx="766.1" cy="294.8" r="11" fill="none" stroke="#c9c2a4" stroke-width="1"/><circle cx="781.9" cy="319.2" r="11" fill="none" stroke="#c9c2a4" stroke-width="1"/><circle cx="794.2" cy="345.5" r="11" fill="none" stroke="#c9c2a4" stroke-width="1"/><circle cx="802.7" cy="373.2" r="11" fill="none" stroke="#c9c2a4" stroke-width="1"/><circle cx="807.2" cy="401.9" r="11" fill="none" stroke="#c9c2a4" stroke-width="1"/><circle cx="807.7" cy="430.9" r="11" fill="none" stroke="#c9c2a4" stroke-width="1"/><circle cx="804.2" cy="459.7" r="11" fill="none" stroke="#c9c2a4" stroke-width="1"/><circle cx="796.7" cy="487.7" r="11" fill="none" stroke="#c9c2a4" stroke-width="1"/><circle cx="785.3" cy="514.4" r="11" fill="none" stroke="#c9c2a4" stroke-width="1"/><circle cx="770.4" cy="539.3" r="11" fill="none" stroke="#c9c2a4" stroke-width="1"/><circle cx="752.1" cy="561.9" r="11" fill="none" stroke="#c9c2a4" stroke-width="1"/><circle cx="730.9" cy="581.6" r="11" fill="none" stroke="#c9c2a4" stroke-width="1"/><circle cx="707.1" cy="598.3" r="11" fill="none" stroke="#c9c2a4" stroke-width="1"/><circle cx="681.3" cy="611.5" r="11" fill="none" stroke="#c9c2a4" stroke-width="1"/><circle cx="653.8" cy="620.9" r="11" fill="none" stroke="#c9c2a4" stroke-width="1"/><circle cx="625.3" cy="626.4" r="11" fill="none" stroke="#c9c2a4" stroke-width="1"/><circle cx="596.4" cy="628" r="11" fill="none" stroke="#c9c2a4" stroke-width="1"/><circle cx="567.5" cy="625.4" r="11" fill="none" stroke="#c9c2a4" stroke-width="1"/><circle cx="539.2" cy="618.9" r="11" fill="none" stroke="#c9c2a4" stroke-width="1"/><circle cx="512.1" cy="608.5" r="11" fill="none" stroke="#c9c2a4" stroke-width="1"/><circle cx="486.7" cy="594.4" r="11" fill="none" stroke="#c9c2a4" stroke-width="1"/><circle cx="463.5" cy="577" r="11" fill="none" stroke="#c9c2a4" stroke-width="1"/><circle cx="443" cy="556.5" r="11" fill="none" stroke="#c9c2a4" stroke-width="1"/><circle cx="425.6" cy="533.3" r="11" fill="none" stroke="#c9c2a4" stroke-width="1"/><circle cx="411.5" cy="507.9" r="11" fill="none" stroke="#c9c2a4" stroke-width="1"/><circle cx="401.1" cy="480.8" r="11" fill="none" stroke="#c9c2a4" stroke-width="1"/><circle cx="394.6" cy="452.5" r="11" fill="none" stroke="#c9c2a4" stroke-width="1"/><circle cx="392" cy="423.6" r="11" fill="none" stroke="#c9c2a4" stroke-width="1"/><circle cx="393.6" cy="394.7" r="11" fill="none" stroke="#c9c2a4" stroke-width="1"/><circle cx="399.1" cy="366.2" r="11" fill="none" stroke="#c9c2a4" stroke-width="1"/><circle cx="408.5" cy="338.7" r="11" fill="none" stroke="#c9c2a4" stroke-width="1"/><circle cx="421.7" cy="312.9" r="11" fill="none" stroke="#c9c2a4" stroke-width="1"/><circle cx="438.4" cy="289.1" r="11" fill="none" stroke="#c9c2a4" stroke-width="1"/><circle cx="458.1" cy="267.9" r="11" fill="none" stroke="#c9c2a4" stroke-width="1"/><circle cx="480.7" cy="249.6" r="11" fill="none" stroke="#c9c2a4" stroke-width="1"/><circle cx="505.6" cy="234.7" r="11" fill="none" stroke="#c9c2a4" stroke-width="1"/><circle cx="532.3" cy="223.3" r="11" fill="none" stroke="#c9c2a4" stroke-width="1"/><circle cx="560.3" cy="215.8" r="11" fill="none" stroke="#c9c2a4" stroke-width="1"/><circle cx="589.1" cy="212.3" r="11" fill="none" stroke="#c9c2a4" stroke-width="1"/><circle cx="600" cy="237" r="11" fill="none" stroke="#c9c2a4" stroke-width="1"/><circle cx="628.6" cy="239.3" r="11" fill="none" stroke="#c9c2a4" stroke-width="1"/><circle cx="656.6" cy="246" r="11" fill="none" stroke="#c9c2a4" stroke-width="1"/><circle cx="683.1" cy="256.9" r="11" fill="none" stroke="#c9c2a4" stroke-width="1"/><circle cx="707.6" cy="271.9" r="11" fill="none" stroke="#c9c2a4" stroke-width="1"/><circle cx="729.4" cy="290.6" r="11" fill="none" stroke="#c9c2a4" stroke-width="1"/><circle cx="748.1" cy="312.4" r="11" fill="none" stroke="#c9c2a4" stroke-width="1"/><circle cx="763.1" cy="336.9" r="11" fill="none" stroke="#c9c2a4" stroke-width="1"/><circle cx="774" cy="363.4" r="11" fill="none" stroke="#c9c2a4" stroke-width="1"/><circle cx="780.7" cy="391.4" r="11" fill="none" stroke="#c9c2a4" stroke-width="1"/><circle cx="783" cy="420" r="11" fill="none" stroke="#c9c2a4" stroke-width="1"/><circle cx="780.7" cy="448.6" r="11" fill="none" stroke="#c9c2a4" stroke-width="1"/><circle cx="774" cy="476.6" r="11" fill="none" stroke="#c9c2a4" stroke-width="1"/><circle cx="763.1" cy="503.1" r="11" fill="none" stroke="#c9c2a4" stroke-width="1"/><circle cx="748.1" cy="527.6" r="11" fill="none" stroke="#c9c2a4" stroke-width="1"/><circle cx="729.4" cy="549.4" r="11" fill="none" stroke="#c9c2a4" stroke-width="1"/><circle cx="707.6" cy="568.1" r="11" fill="none" stroke="#c9c2a4" stroke-width="1"/><circle cx="683.1" cy="583.1" r="11" fill="none" stroke="#c9c2a4" stroke-width="1"/><circle cx="656.6" cy="594" r="11" fill="none" stroke="#c9c2a4" stroke-width="1"/><circle cx="628.6" cy="600.7" r="11" fill="none" stroke="#c9c2a4" stroke-width="1"/><circle cx="600" cy="603" r="11" fill="none" stroke="#c9c2a4" stroke-width="1"/><circle cx="571.4" cy="600.7" r="11" fill="none" stroke="#c9c2a4" stroke-width="1"/><circle cx="543.4" cy="594" r="11" fill="none" stroke="#c9c2a4" stroke-width="1"/><circle cx="516.9" cy="583.1" r="11" fill="none" stroke="#c9c2a4" stroke-width="1"/><circle cx="492.4" cy="568.1" r="11" fill="none" stroke="#c9c2a4" stroke-width="1"/><circle cx="470.6" cy="549.4" r="11" fill="none" stroke="#c9c2a4" stroke-width="1"/><circle cx="451.9" cy="527.6" r="11" fill="none" stroke="#c9c2a4" stroke-width="1"/><circle cx="436.9" cy="503.1" r="11" fill="none" stroke="#c9c2a4" stroke-width="1"/><circle cx="426" cy="476.6" r="11" fill="none" stroke="#c9c2a4" stroke-width="1"/><circle cx="419.3" cy="448.6" r="11" fill="none" stroke="#c9c2a4" stroke-width="1"/><circle cx="417" cy="420" r="11" fill="none" stroke="#c9c2a4" stroke-width="1"/><circle cx="419.3" cy="391.4" r="11" fill="none" stroke="#c9c2a4" stroke-width="1"/><circle cx="426" cy="363.4" r="11" fill="none" stroke="#c9c2a4" stroke-width="1"/><circle cx="436.9" cy="336.9" r="11" fill="none" stroke="#c9c2a4" stroke-width="1"/><circle cx="451.9" cy="312.4" r="11" fill="none" stroke="#c9c2a4" stroke-width="1"/><circle cx="470.6" cy="290.6" r="11" fill="none" stroke="#c9c2a4" stroke-width="1"/><circle cx="492.4" cy="271.9" r="11" fill="none" stroke="#c9c2a4" stroke-width="1"/><circle cx="516.9" cy="256.9" r="11" fill="none" stroke="#c9c2a4" stroke-width="1"/><circle cx="543.4" cy="246" r="11" fill="none" stroke="#c9c2a4" stroke-width="1"/><circle cx="571.4" cy="239.3" r="11" fill="none" stroke="#c9c2a4" stroke-width="1"/><circle cx="627.4" cy="264.4" r="11" fill="none" stroke="#c9c2a4" stroke-width="1"/><circle cx="655.6" cy="272.1" r="11" fill="none" stroke="#c9c2a4" stroke-width="1"/><circle cx="681.8" cy="284.8" r="11" fill="none" stroke="#c9c2a4" stroke-width="1"/><circle cx="705.2" cy="302.1" r="11" fill="none" stroke="#c9c2a4" stroke-width="1"/><circle cx="725.1" cy="323.5" r="11" fill="none" stroke="#c9c2a4" stroke-width="1"/><circle cx="740.7" cy="348.1" r="11" fill="none" stroke="#c9c2a4" stroke-width="1"/><circle cx="751.5" cy="375.2" r="11" fill="none" stroke="#c9c2a4" stroke-width="1"/><circle cx="757.2" cy="403.8" r="11" fill="none" stroke="#c9c2a4" stroke-width="1"/><circle cx="757.5" cy="433" r="11" fill="none" stroke="#c9c2a4" stroke-width="1"/><circle cx="752.4" cy="461.7" r="11" fill="none" stroke="#c9c2a4" stroke-width="1"/><circle cx="742.2" cy="489" r="11" fill="none" stroke="#c9c2a4" stroke-width="1"/><circle cx="727.1" cy="513.9" r="11" fill="none" stroke="#c9c2a4" stroke-width="1"/><circle cx="707.6" cy="535.7" r="11" fill="none" stroke="#c9c2a4" stroke-width="1"/><circle cx="684.6" cy="553.5" r="11" fill="none" stroke="#c9c2a4" stroke-width="1"/><circle cx="658.6" cy="566.7" r="11" fill="none" stroke="#c9c2a4" stroke-width="1"/><circle cx="630.6" cy="575" r="11" fill="none" stroke="#c9c2a4" stroke-width="1"/><circle cx="601.6" cy="578" r="11" fill="none" stroke="#c9c2a4" stroke-width="1"/><circle cx="572.6" cy="575.6" r="11" fill="none" stroke="#c9c2a4" stroke-width="1"/><circle cx="544.4" cy="567.9" r="11" fill="none" stroke="#c9c2a4" stroke-width="1"/><circle cx="518.2" cy="555.2" r="11" fill="none" stroke="#c9c2a4" stroke-width="1"/><circle cx="494.8" cy="537.9" r="11" fill="none" stroke="#c9c2a4" stroke-width="1"/><circle cx="474.9" cy="516.5" r="11" fill="none" stroke="#c9c2a4" stroke-width="1"/><circle cx="459.3" cy="491.9" r="11" fill="none" stroke="#c9c2a4" stroke-width="1"/><circle cx="448.5" cy="464.8" r="11" fill="none" stroke="#c9c2a4" stroke-width="1"/><circle cx="442.8" cy="436.2" r="11" fill="none" stroke="#c9c2a4" stroke-width="1"/><circle cx="442.5" cy="407" r="11" fill="none" stroke="#c9c2a4" stroke-width="1"/><circle cx="447.6" cy="378.3" r="11" fill="none" stroke="#c9c2a4" stroke-width="1"/><circle cx="457.8" cy="351" r="11" fill="none" stroke="#c9c2a4" stroke-width="1"/><circle cx="472.9" cy="326.1" r="11" fill="none" stroke="#c9c2a4" stroke-width="1"/><circle cx="492.4" cy="304.3" r="11" fill="none" stroke="#c9c2a4" stroke-width="1"/><circle cx="515.4" cy="286.5" r="11" fill="none" stroke="#c9c2a4" stroke-width="1"/><circle cx="541.4" cy="273.3" r="11" fill="none" stroke="#c9c2a4" stroke-width="1"/><circle cx="569.4" cy="265" r="11" fill="none" stroke="#c9c2a4" stroke-width="1"/><circle cx="598.4" cy="262" r="11" fill="none" stroke="#c9c2a4" stroke-width="1"/><circle cx="600" cy="420" r="125" fill="#fdfbf3" stroke="#000" stroke-width="2"/><path d="M600,312 L632.5,387.5 L708,420 L632.5,452.5 L600,528 L567.5,452.5 L492,420 L567.5,387.5Z" fill="#f4c7c0" stroke="#000" stroke-width="2" stroke-linejoin="round"/><circle cx="600" cy="420" r="11" fill="#fff" stroke="#000" stroke-width="1.5"/><circle cx="600" cy="378" r="9" fill="#fff" stroke="#000" stroke-width="1.5"/><circle cx="600" cy="348" r="6" fill="#fff" stroke="#000" stroke-width="1.5"/><circle cx="642" cy="420" r="9" fill="#fff" stroke="#000" stroke-width="1.5"/><circle cx="672" cy="420" r="6" fill="#fff" stroke="#000" stroke-width="1.5"/><circle cx="600" cy="462" r="9" fill="#fff" stroke="#000" stroke-width="1.5"/><circle cx="600" cy="492" r="6" fill="#fff" stroke="#000" stroke-width="1.5"/><circle cx="558" cy="420" r="9" fill="#fff" stroke="#000" stroke-width="1.5"/><circle cx="528" cy="420" r="6" fill="#fff" stroke="#000" stroke-width="1.5"/><ellipse cx="662.2" cy="357.8" rx="24" ry="17" transform="rotate(45 662.2 357.8)" fill="#cfe7a8" stroke="#000" stroke-width="2"/><ellipse cx="662.2" cy="482.2" rx="24" ry="17" transform="rotate(135 662.2 482.2)" fill="#cfe7a8" stroke="#000" stroke-width="2"/><ellipse cx="537.8" cy="482.2" rx="24" ry="17" transform="rotate(225 537.8 482.2)" fill="#cfe7a8" stroke="#000" stroke-width="2"/><ellipse cx="537.8" cy="357.8" rx="24" ry="17" transform="rotate(315 537.8 357.8)" fill="#cfe7a8" stroke="#000" stroke-width="2"/><line x1="173" y1="210.1" x2="383.7" y2="225.3" stroke="#000" stroke-width="1.5"/>
<text x="165" y="220" text-anchor="end" font-size="30">epidermis</text><line x1="173" y1="410.1" x2="389.7" y2="375.3" stroke="#000" stroke-width="1.5"/>
<text x="165" y="420" text-anchor="end" font-size="30">cortex</text><line x1="173" y1="650.1" x2="316.5" y2="611.2" stroke="#000" stroke-width="1.5"/>
<text x="165" y="660" text-anchor="end" font-size="30">root hair</text><line x1="992" y1="420.1" x2="696" y2="420" stroke="#000" stroke-width="1.5"/>
<text x="1000" y="430" text-anchor="start" font-size="30">xylem</text><line x1="992" y1="515.1" x2="669.3" y2="489.3" stroke="#000" stroke-width="1.5"/>
<text x="1000" y="525" text-anchor="start" font-size="30">phloem</text>
</g></svg>