<svg xmlns="http://www.w3.org/2000/svg" width="1200" height="600" viewBox="0 0 1200 600">
<defs><marker id="ah" viewBox="0 0 10 10" refX="9" refY="5" markerWidth="7" markerHeight="7" orient="auto-start-reverse"><path d="M0,0 L10,5 L0,10 z" fill="#000"/></marker></defs>
<rect width="1200" height="600" fill="#fff"/>
<g font-family="DejaVu Sans" font-size="30" fill="#000">
<g transform="translate(0,-110)"><path d="M100,300 L440,300 L440,370 Q750,330 1050,360 A35,35 0 0 1 1050,430 Q750,400 440,450 L440,560 L100,560 Z" fill="#e9dcb8" stroke="#000" stroke-width="2.5" stroke-linejoin="round"/><path d="M112,312 L428,312 L428,382 Q750,342 1046,372 A23,23 0 0 1 1046,418 Q750,388 428,438 L428,548 L112,548 Z" fill="#f8f4e2" stroke="#000" stroke-width="1.5" stroke-linejoin="round"/><circle cx="125" cy="330" r="2.5" fill="#9b8f6a"/><circle cx="140" cy="525" r="2.5" fill="#9b8f6a"/><circle cx="180" cy="532" r="2.5" fill="#9b8f6a"/><circle cx="410" cy="330" r="2.5" fill="#9b8f6a"/><circle cx="412" cy="520" r="2.5" fill="#9b8f6a"/><circle cx="600" cy="382" r="2.5" fill="#9b8f6a"/><circle cx="700" cy="372" r="2.5" fill="#9b8f6a"/><circle cx="880" cy="380" r="2.5" fill="#9b8f6a"/><circle cx="960" cy="390" r="2.5" fill="#9b8f6a"/><circle cx="1000" cy="402" r="2.5" fill="#9b8f6a"/><circle cx="640" cy="410" r="2.5" fill="#9b8f6a"/><path d="M160,335 L392,335 Q408,335 410,352 L414,394 Q700,364 880,384 Q896,396 880,404 Q700,394 414,416 L410,465 Q408,480 392,480 L160,480 Q138,480 138,460 L138,355 Q138,335 160,335Z" fill="#dcecf8" stroke="#000" stroke-width="1.5"/><ellipse cx="300" cy="514" rx="40" ry="24" fill="#d9c8ea" stroke="#000" stroke-width="2"/><circle cx="308" cy="512" r="7" fill="#7d5ea3"/><line x1="150" y1="210" x2="170" y2="306" stroke="#000" stroke-width="1.5"/>
<text x="150" y="200" text-anchor="middle" font-size="30">cell wall</text><line x1="470" y1="210" x2="360" y2="313" stroke="#000" stroke-width="1.5"/>
<text x="470" y="200" text-anchor="middle" font-size="30">cell surface membrane</text><line x1="870" y1="210" x2="870" y2="349" stroke="#000" stroke-width="1.5"/>
<text x="870" y="200" text-anchor="middle" font-size="30">root hair</text><line x1="120" y1="644.5" x2="124" y2="430" stroke="#000" stroke-width="1.5"/>
<text x="120" y="670" text-anchor="middle" font-size="30">cytoplasm</text><line x1="290" y1="644.5" x2="190" y2="420" stroke="#000" stroke-width="1.5"/>
<text x="290" y="670" text-anchor="middle" font-size="30">vacuole</text><line x1="540" y1="644.5" x2="330" y2="530" stroke="#000" stroke-width="1.5"/>
<text x="540" y="670" text-anchor="middle" font-size="30">nucleus</text><line x1="455" y1="478" x2="1078" y2="478" stroke="#000" stroke-width="2" marker-start="url(#ah)" marker-end="url(#ah)"/><text x="830" y="535" text-anchor="middle" font-size="28" >long, narrow extension:</text><text x="830" y="572" text-anchor="middle" font-size="28" >large surface area</text><text x="830" y="609" text-anchor="middle" font-size="28" >for absorbing water and mineral salts</text></g>
</g></svg>