<svg xmlns="http://www.w3.org/2000/svg" width="1200" height="720" viewBox="0 0 1200 720"><rect width="1200" height="720" fill="#fff"/><g font-family="DejaVu Sans" font-size="30" fill="#000"><circle cx="600" cy="260" r="150" fill="none" stroke="#000" stroke-width="2.5"/><circle cx="462.09811811882366" cy="367.7407581819902" r="95" fill="none" stroke="#000" stroke-width="2.5"/><circle cx="737.9018818811763" cy="367.7407581819902" r="95" fill="none" stroke="#000" stroke-width="2.5"/><text x="600" y="275.8" text-anchor="middle" font-size="44" font-weight="bold">O</text><text x="462.09811811882366" y="383.6" text-anchor="middle" font-size="44" font-weight="bold">H</text><text x="737.9018818811763" y="383.6" text-anchor="middle" font-size="44" font-weight="bold">H</text><path d="M486.8,304.5 L504.8,322.5 M486.8,322.5 L504.8,304.5" stroke="#c0392b" stroke-width="3.5" stroke-linecap="round"/><circle cx="522.9" cy="348.1" r="8" fill="#1f5fbf"/><path d="M668.1,339.1 L686.1,357.1 M668.1,357.1 L686.1,339.1" stroke="#c0392b" stroke-width="3.5" stroke-linecap="round"/><circle cx="704.2" cy="313.5" r="8" fill="#1f5fbf"/><path d="M649.6,112.9 L667.6,130.9 M649.6,130.9 L667.6,112.9" stroke="#c0392b" stroke-width="3.5" stroke-linecap="round"/><path d="M689.4,137.8 L707.4,155.8 M689.4,155.8 L707.4,137.8" stroke="#c0392b" stroke-width="3.5" stroke-linecap="round"/><path d="M492.6,137.8 L510.6,155.8 M492.6,155.8 L510.6,137.8" stroke="#c0392b" stroke-width="3.5" stroke-linecap="round"/><path d="M532.4,112.9 L550.4,130.9 M532.4,130.9 L550.4,112.9" stroke="#c0392b" stroke-width="3.5" stroke-linecap="round"/><rect x="315.0" y="595" width="570" height="110" fill="none" stroke="#888" stroke-width="1.5"/><circle cx="355.0" cy="628.0" r="8" fill="#1f5fbf"/><text x="385.0" y="638">electron of H</text><path d="M346.0,667.0 L364.0,685.0 M346.0,685.0 L364.0,667.0" stroke="#c0392b" stroke-width="3.5" stroke-linecap="round"/><text x="385.0" y="686">electron of O</text><text x="600" y="550" text-anchor="middle">water molecule, H₂O</text></g></svg>