<svg xmlns="http://www.w3.org/2000/svg" width="1200" height="860" viewBox="0 0 1200 860"><rect width="1200" height="860" fill="#fff"/><g font-family="DejaVu Sans" font-size="30" fill="#000"><circle cx="142.5" cy="638.1" r="20.6" fill="#d6d6d6" stroke="#000" stroke-width="2.5"/><circle cx="429.6" cy="351.8" r="21.2" fill="#d6d6d6" stroke="#000" stroke-width="2.5"/><line x1="288.6" y1="554.2" x2="158.6" y2="628.8" stroke="#000" stroke-width="5" stroke-linecap="butt"/><line x1="317.2" y1="527.0" x2="419.3" y2="367.9" stroke="#000" stroke-width="5" stroke-linecap="butt"/><circle cx="716.8" cy="65.5" r="21.8" fill="#d6d6d6" stroke="#000" stroke-width="2.5"/><line x1="575.3" y1="268.2" x2="446.3" y2="342.2" stroke="#000" stroke-width="5" stroke-linecap="butt"/><circle cx="306.2" cy="544.0" r="22.3" fill="#d6d6d6" stroke="#000" stroke-width="2.5"/><line x1="604.7" y1="240.1" x2="706.1" y2="82.2" stroke="#000" stroke-width="5" stroke-linecap="butt"/><line x1="319.9" y1="559.0" x2="455.8" y2="707.1" stroke="#000" stroke-width="5" stroke-linecap="butt"/><circle cx="593.4" cy="257.7" r="22.9" fill="#d6d6d6" stroke="#000" stroke-width="2.5"/><circle cx="470.0" cy="722.5" r="23.0" fill="#d6d6d6" stroke="#000" stroke-width="2.5"/><line x1="607.6" y1="273.1" x2="742.6" y2="420.3" stroke="#000" stroke-width="5" stroke-linecap="butt"/><line x1="289.2" y1="533.0" x2="201.6" y2="476.0" stroke="#000" stroke-width="5" stroke-linecap="butt"/><circle cx="757.2" cy="436.2" r="23.6" fill="#d6d6d6" stroke="#000" stroke-width="2.5"/><line x1="614.1" y1="639.8" x2="488.2" y2="712.1" stroke="#b5651d" stroke-width="8" stroke-linecap="butt"/><line x1="575.9" y1="246.3" x2="489.3" y2="190.0" stroke="#000" stroke-width="5" stroke-linecap="butt"/><line x1="646.0" y1="609.4" x2="745.5" y2="454.4" stroke="#b5651d" stroke-width="8" stroke-linecap="butt"/><circle cx="182.8" cy="463.8" r="24.4" fill="#d6d6d6" stroke="#000" stroke-width="2.5"/><circle cx="633.8" cy="628.5" r="24.7" fill="#e8a33d" stroke="#000" stroke-width="2.5"/><line x1="649.1" y1="645.2" x2="781.7" y2="789.7" stroke="#b5651d" stroke-width="8" stroke-linecap="butt"/><circle cx="470.0" cy="177.5" r="25.0" fill="#d6d6d6" stroke="#000" stroke-width="2.5"/><line x1="325.7" y1="381.8" x2="202.2" y2="452.7" stroke="#000" stroke-width="5" stroke-linecap="butt"/><circle cx="797.5" cy="806.9" r="25.4" fill="#d6d6d6" stroke="#000" stroke-width="2.5"/><line x1="359.6" y1="349.5" x2="457.6" y2="196.9" stroke="#000" stroke-width="5" stroke-linecap="butt"/><line x1="614.7" y1="616.1" x2="531.1" y2="561.7" stroke="#b5651d" stroke-width="8" stroke-linecap="butt"/><circle cx="346.6" cy="369.8" r="26.1" fill="#d6d6d6" stroke="#000" stroke-width="2.5"/><line x1="362.9" y1="387.5" x2="493.6" y2="530.0" stroke="#000" stroke-width="5" stroke-linecap="butt"/><circle cx="510.4" cy="548.2" r="26.8" fill="#d6d6d6" stroke="#000" stroke-width="2.5"/><line x1="326.4" y1="356.6" x2="245.2" y2="303.8" stroke="#000" stroke-width="5" stroke-linecap="butt"/><circle cx="223.2" cy="289.5" r="28.2" fill="#d6d6d6" stroke="#000" stroke-width="2.5"/><text x="880" y="100" text-anchor="start">carbon atom</text><line x1="870.0" y1="90.0" x2="738.4" y2="68.9" stroke="#000" stroke-width="1.5"/><text x="880" y="300" text-anchor="start">strong covalent</text><text x="880" y="336" text-anchor="start">bond</text><line x1="870.0" y1="300.0" x2="678.3" y2="347.0" stroke="#000" stroke-width="1.5"/><text x="880" y="560" text-anchor="start">each carbon atom</text><text x="880" y="596" text-anchor="start">bonded to 4 others</text><text x="880" y="632" text-anchor="start">(tetrahedral)</text><line x1="870.0" y1="552.0" x2="657.5" y2="621.6" stroke="#000" stroke-width="1.5"/></g></svg>