<svg xmlns="http://www.w3.org/2000/svg" width="1200" height="760" viewBox="0 0 1200 760">
<defs>
<marker id="ah" viewBox="0 0 12 12" refX="10" refY="6" markerWidth="22" markerHeight="22" markerUnits="userSpaceOnUse" orient="auto"><path d="M0,0 L12,6 L0,12 z" fill="#000"/></marker>
<marker id="ahs" viewBox="0 0 12 12" refX="10" refY="6" markerWidth="16" markerHeight="16" markerUnits="userSpaceOnUse" orient="auto"><path d="M0,0 L12,6 L0,12 z" fill="#000"/></marker>
<marker id="ahR" viewBox="0 0 12 12" refX="10" refY="6" markerWidth="20" markerHeight="20" markerUnits="userSpaceOnUse" orient="auto"><path d="M0,0 L12,6 L0,12 z" fill="#c0392b"/></marker>
<marker id="ahM" viewBox="0 0 12 12" refX="6" refY="6" markerWidth="22" markerHeight="22" markerUnits="userSpaceOnUse" orient="auto"><path d="M0,0 L12,6 L0,12 z" fill="#c0392b"/></marker>

</defs>
<rect width="1200" height="760" fill="#fff"/>
<g font-family="DejaVu Sans" font-size="30" fill="#000">
<polygon points="360,150 130.0,548.4 590.0,548.4" fill="#e6f2fb" stroke="#000" stroke-width="3"/>
<line x1="35.9" y1="423.6" x2="240.4" y2="357.2" stroke="#000" stroke-width="5" />
<line x1="118.4" y1="396.8" x2="141.3" y2="389.4" stroke="#000" stroke-width="5" marker-end="url(#ah)"/>
<line x1="240.4" y1="357.2" x2="478.7" y2="355.6" stroke="#d62020" stroke-width="2.5" />
<line x1="478.7" y1="355.6" x2="960.0" y2="499.3" stroke="#d62020" stroke-width="3" />
<line x1="240.4" y1="357.2" x2="480.1" y2="358.0" stroke="#ee7a00" stroke-width="2.5" />
<line x1="480.1" y1="358.0" x2="960.0" y2="520.9" stroke="#ee7a00" stroke-width="3" />
<line x1="240.4" y1="357.2" x2="481.4" y2="360.2" stroke="#d9b800" stroke-width="2.5" />
<line x1="481.4" y1="360.2" x2="960.0" y2="543.6" stroke="#d9b800" stroke-width="3" />
<line x1="240.4" y1="357.2" x2="482.7" y2="362.4" stroke="#1f9a3a" stroke-width="2.5" />
<line x1="482.7" y1="362.4" x2="960.0" y2="567.7" stroke="#1f9a3a" stroke-width="3" />
<line x1="240.4" y1="357.2" x2="483.9" y2="364.6" stroke="#1f5fd6" stroke-width="2.5" />
<line x1="483.9" y1="364.6" x2="960.0" y2="593.7" stroke="#1f5fd6" stroke-width="3" />
<line x1="240.4" y1="357.2" x2="485.1" y2="366.7" stroke="#3b2a9a" stroke-width="2.5" />
<line x1="485.1" y1="366.7" x2="960.0" y2="622.2" stroke="#3b2a9a" stroke-width="3" />
<line x1="240.4" y1="357.2" x2="486.3" y2="368.7" stroke="#8e3ccf" stroke-width="2.5" />
<line x1="486.3" y1="368.7" x2="960.0" y2="654.0" stroke="#8e3ccf" stroke-width="3" />
<rect x="960" y="409" width="16" height="335" fill="#ddd" stroke="#000" stroke-width="2"/>
<line x1="978.0" y1="499.3" x2="1012.0" y2="454.6" stroke="#d62020" stroke-width="1.5" />
<text x="1018.0" y="463.6" text-anchor="start" fill="#d62020" font-size="28">red</text>
<line x1="978.0" y1="520.9" x2="1012.0" y2="490.6" stroke="#ee7a00" stroke-width="1.5" />
<text x="1018.0" y="499.6" text-anchor="start" fill="#ee7a00" font-size="28">orange</text>
<line x1="978.0" y1="543.6" x2="1012.0" y2="526.6" stroke="#d9b800" stroke-width="1.5" />
<text x="1018.0" y="535.6" text-anchor="start" fill="#d9b800" font-size="28">yellow</text>
<line x1="978.0" y1="567.7" x2="1012.0" y2="562.6" stroke="#1f9a3a" stroke-width="1.5" />
<text x="1018.0" y="571.6" text-anchor="start" fill="#1f9a3a" font-size="28">green</text>
<line x1="978.0" y1="593.7" x2="1012.0" y2="598.6" stroke="#1f5fd6" stroke-width="1.5" />
<text x="1018.0" y="607.6" text-anchor="start" fill="#1f5fd6" font-size="28">blue</text>
<line x1="978.0" y1="622.2" x2="1012.0" y2="634.6" stroke="#3b2a9a" stroke-width="1.5" />
<text x="1018.0" y="643.6" text-anchor="start" fill="#3b2a9a" font-size="28">indigo</text>
<line x1="978.0" y1="654.0" x2="1012.0" y2="670.6" stroke="#8e3ccf" stroke-width="1.5" />
<text x="1018.0" y="679.6" text-anchor="start" fill="#8e3ccf" font-size="28">violet</text>
<text x="968.0" y="395.3" text-anchor="middle" >screen</text>
<text x="25.0" y="300.0" text-anchor="start" >white light</text>
<text x="560.0" y="320.0" text-anchor="start" font-size="27">red: least deviated</text>
<text x="560.0" y="660.0" text-anchor="start" font-size="27">violet: most deviated</text>
<text x="360.0" y="598.4" text-anchor="middle" >glass prism</text>
</g></svg>
